<?xml version="1.0" standalone="no"?>
<!DOCTYPE svg PUBLIC "-//W3C//DTD SVG 20010904//EN"
 "http://www.w3.org/TR/2001/REC-SVG-20010904/DTD/svg10.dtd">
<svg version="1.0" xmlns="http://www.w3.org/2000/svg"
 width="360.000000pt" height="360.000000pt" viewBox="0 0 360.000000 360.000000"
 preserveAspectRatio="xMidYMid meet">

<g transform="translate(0.000000,360.000000) scale(0.100000,-0.100000)"
fill="#000000" stroke="none">
<path d="M1830 3456 c-3 -3 -39 -10 -80 -16 -41 -6 -88 -16 -105 -22 -16 -5
-60 -11 -96 -13 -37 -2 -81 -11 -97 -19 -17 -9 -46 -16 -64 -16 -18 0 -57 -11
-86 -25 -28 -13 -68 -27 -87 -31 -19 -3 -35 -10 -35 -15 0 -5 -8 -9 -18 -9
-21 0 -52 -30 -52 -49 0 -6 -9 -30 -20 -51 -17 -34 -25 -40 -51 -40 -48 0 -93
-56 -114 -139 -9 -36 -23 -88 -32 -115 -14 -44 -22 -135 -24 -296 -2 -112 7
-349 13 -355 3 -3 9 42 12 102 10 175 43 311 87 359 14 14 21 42 25 90 9 102
62 186 161 255 78 54 234 74 358 44 95 -22 319 -119 378 -164 57 -43 84 -51
93 -26 4 8 11 15 18 15 7 0 30 18 51 41 46 47 82 67 209 116 70 27 108 36 171
38 90 4 209 -16 272 -46 110 -53 193 -172 193 -279 0 -45 6 -65 29 -102 54
-86 72 -165 86 -380 4 -60 10 -108 15 -108 19 0 30 31 35 101 3 40 7 106 10
144 4 44 0 100 -10 148 -8 43 -15 114 -15 158 0 71 -13 143 -51 283 -16 60
-56 103 -107 116 -39 10 -45 15 -64 61 -20 47 -27 53 -99 90 -43 21 -86 39
-95 39 -10 0 -40 6 -68 14 -121 34 -176 45 -251 51 -44 3 -109 15 -145 27 -48
15 -101 22 -205 25 -77 3 -142 3 -145 -1z"/>
<path d="M1163 2545 c-67 -69 -70 -91 -10 -61 55 27 171 27 317 -3 81 -16 106
-18 112 -8 4 6 6 16 5 21 -4 11 -136 58 -242 87 -110 29 -121 27 -182 -36z"/>
<path d="M2545 2571 c-171 -54 -200 -66 -200 -87 0 -23 -1 -23 173 7 141 24
201 21 273 -15 16 -8 29 -12 29 -10 0 13 -63 95 -86 113 -36 28 -79 26 -189
-8z"/>
<path d="M1270 2434 c-188 -81 -151 -362 50 -382 117 -11 212 74 212 190 -1
73 -18 113 -68 157 -60 53 -125 65 -194 35z"/>
<path d="M2490 2419 c-42 -26 -55 -41 -80 -94 -38 -79 -21 -166 43 -222 73
-64 166 -66 246 -6 104 80 88 263 -29 323 -54 27 -134 27 -180 -1z"/>
<path d="M3077 2095 c-16 -20 -32 -33 -38 -30 -5 4 -9 -1 -9 -10 0 -14 3 -14
24 2 21 15 63 73 54 73 -2 0 -16 -16 -31 -35z"/>
<path d="M2910 1729 c0 -5 5 -7 10 -4 6 3 10 8 10 11 0 2 -4 4 -10 4 -5 0 -10
-5 -10 -11z"/>
<path d="M2863 1693 c9 -8 -42 -35 -54 -27 -5 3 -6 -1 -3 -9 3 -8 0 -18 -7
-23 -8 -4 -10 -3 -5 4 8 14 -3 15 -23 3 -7 -5 -10 -14 -7 -20 10 -15 -7 -14
-23 2 -11 10 -13 9 -8 -5 9 -25 -58 -44 -104 -30 -36 11 -69 12 -69 3 0 -8
-164 -6 -177 2 -7 4 -14 4 -17 -1 -6 -10 -207 -9 -223 1 -7 5 -13 4 -13 -1 0
-5 -12 -7 -26 -4 -21 4 -25 2 -19 -9 7 -12 6 -11 -9 0 -14 12 -19 12 -26 2 -6
-11 -9 -11 -13 0 -4 12 -7 11 -16 -1 -7 -10 -11 -11 -11 -3 0 9 -20 12 -69 11
-45 -2 -67 -6 -63 -13 3 -5 -3 -3 -13 5 -11 9 -16 10 -11 3 4 -7 2 -13 -3 -13
-6 0 -11 5 -11 10 0 15 -87 12 -93 -2 -3 -7 -6 -4 -6 7 -1 17 -3 17 -11 5 -5
-8 -10 -11 -10 -7 0 4 -10 3 -21 -4 -15 -8 -19 -8 -15 0 10 15 -7 14 -23 -1
-10 -11 -11 -9 -5 6 6 15 4 17 -7 10 -19 -12 -38 -14 -44 -4 -2 4 -19 6 -37 3
-74 -9 -178 -9 -178 0 0 5 -6 5 -13 -2 -8 -6 -16 -9 -18 -7 -2 2 -20 6 -39 10
-25 4 -31 3 -20 -4 9 -6 10 -10 3 -10 -6 0 -15 5 -19 11 -3 6 -15 9 -25 6 -11
-3 -19 -1 -19 5 0 5 -4 6 -10 3 -5 -3 -10 -1 -10 6 0 8 -3 9 -14 0 -10 -9 -16
-8 -26 4 -7 9 -18 14 -24 12 -6 -2 -31 7 -55 19 -31 17 -39 19 -30 7 19 -22
168 -93 196 -93 33 0 28 -15 -12 -40 -53 -33 -151 -146 -204 -235 -26 -44 -76
-129 -112 -189 -69 -118 -157 -218 -211 -240 -79 -32 -81 -32 -165 44 -89 80
-116 87 -121 30 -10 -103 68 -195 198 -234 66 -20 148 -20 261 -2 118 20 170
6 217 -57 12 -16 16 -14 49 25 19 24 37 45 39 47 2 2 4 -1 4 -8 0 -6 -38 -50
-85 -96 -47 -47 -85 -88 -85 -92 0 -3 11 4 25 17 17 16 25 19 25 9 -1 -25 -27
-49 -53 -49 -23 0 -28 -6 -42 -54 -9 -31 -13 -66 -9 -83 12 -53 55 -114 89
-129 19 -7 36 -18 40 -24 3 -6 46 -10 98 -10 84 1 90 2 72 16 -16 12 -20 29
-23 92 -2 45 3 95 11 122 l13 45 91 -3 c65 -3 100 1 128 12 52 22 94 20 121
-5 27 -25 33 -22 85 43 39 50 39 50 107 54 37 3 90 11 119 19 50 15 54 14 90
-7 32 -19 52 -23 134 -23 l96 0 16 -50 c10 -34 14 -81 12 -148 -1 -53 2 -100
7 -103 5 -3 4 -12 -3 -20 -8 -10 -9 -18 -2 -25 29 -29 421 -58 553 -42 61 8
65 10 64 33 -1 14 3 28 9 31 23 15 -35 68 -121 110 -131 64 -165 87 -157 107
8 21 15 48 22 84 3 16 9 28 14 28 9 0 10 6 8 120 0 51 -6 86 -20 114 -10 22
-19 40 -19 41 0 0 46 -1 103 -3 77 -3 112 0 140 12 l37 15 -25 25 c-14 14 -31
23 -38 20 -8 -3 -25 0 -40 5 -27 10 -47 58 -47 112 0 15 -7 32 -15 39 -8 7
-15 16 -15 21 0 11 27 12 33 2 2 -5 2 -3 1 4 -5 18 126 134 159 140 30 6 35
33 7 40 -12 4 -12 3 -2 -5 11 -7 9 -10 -7 -15 -12 -3 -19 -1 -16 3 3 5 0 12
-6 15 -6 5 -9 0 -8 -11 3 -13 -16 -36 -51 -69 -30 -27 -56 -53 -58 -57 -2 -5
-8 -8 -13 -8 -6 0 -7 5 -3 12 8 13 -11 3 -40 -21 -18 -15 -18 -15 -7 7 7 12
50 55 97 94 46 40 84 74 83 77 0 3 -16 19 -36 35 l-35 30 -94 -97 c-53 -55
-101 -97 -111 -96 -17 1 -17 2 0 6 9 2 15 8 12 12 -2 5 36 50 86 102 50 52 86
86 79 77 -8 -12 -9 -18 -2 -18 6 0 14 5 18 11 12 20 -85 96 -184 145 l-97 48
60 8 c76 10 118 24 180 59 86 48 123 89 82 89 -6 0 -7 -3 -4 -7z m-323 -139
c0 -8 -19 -13 -24 -6 -3 5 1 9 9 9 8 0 15 -2 15 -3z m-490 -48 c0 -2 -7 -7
-16 -10 -8 -3 -12 -2 -9 4 6 10 25 14 25 6z m-62 -13 c-10 -2 -26 -2 -35 0
-10 3 -2 5 17 5 19 0 27 -2 18 -5z m340 -108 c-3 -4 -16 9 -28 27 l-23 33 28
-27 c16 -15 26 -30 23 -33z m-72 4 c64 -24 70 -31 49 -63 l-16 -24 -24 24
c-33 33 -78 35 -232 7 -79 -14 -96 -15 -118 -3 -31 16 -28 29 11 52 69 40 232
43 330 7z m429 -94 c-48 -52 -91 -95 -97 -95 -5 0 -2 7 6 16 21 20 20 25 -1
17 -12 -5 -8 6 14 32 34 43 121 128 109 108 -11 -19 8 -15 30 6 10 10 21 17
23 15 2 -2 -35 -46 -84 -99z m-883 37 c-2 -26 3 -66 11 -90 8 -23 14 -42 12
-42 -1 0 -16 7 -34 16 -21 11 -30 21 -27 32 3 10 8 40 12 67 7 53 11 65 22 65
4 0 6 -21 4 -48z m986 -119 c-58 -57 -97 -89 -106 -85 -10 3 16 34 83 99 58
56 101 91 107 85 5 -5 -29 -46 -84 -99z m-611 -30 c6 -18 -30 -34 -48 -21 -11
8 -11 9 3 4 10 -3 20 0 24 6 5 8 -5 9 -32 5 -110 -19 -145 -28 -138 -38 7 -12
2 -11 -37 6 l-34 14 30 1 c17 0 66 9 110 19 91 20 117 21 122 4z m-143 -45
c-3 -4 -12 -8 -20 -8 -8 0 -13 4 -10 8 3 5 12 9 20 9 8 0 13 -4 10 -9z m238
-110 c-6 -7 -44 -31 -85 -52 -45 -24 -81 -50 -91 -67 -10 -16 -14 -29 -11 -29
4 0 -1 -7 -9 -16 -9 -8 -14 -20 -11 -25 4 -5 2 -9 -4 -9 -5 0 -12 -13 -16 -30
-4 -16 -11 -30 -16 -30 -16 0 -9 24 26 90 19 36 38 72 41 80 3 8 45 34 92 57
100 48 98 47 84 31z m35 -75 c5 -15 -179 -203 -197 -203 -10 0 -11 3 -3 11 14
14 5 42 -10 32 -7 -4 -8 1 -4 13 5 15 3 14 -9 -3 -24 -33 -37 -28 -19 7 8 16
20 29 26 27 7 -1 14 4 17 12 3 9 0 11 -8 6 -9 -6 -9 -2 0 16 16 31 50 68 74
81 11 6 1 -7 -22 -29 -23 -22 -42 -46 -42 -54 1 -8 12 -1 27 16 l26 30 -21
-37 c-27 -48 -19 -48 27 -1 20 20 28 34 19 31 -12 -5 -15 -3 -11 8 5 13 8 13
23 -1 15 -14 19 -13 40 10 13 14 30 23 37 21 15 -6 27 10 13 17 -6 3 -5 4 2 3
6 -1 13 -7 15 -13z m-497 -43 c0 -8 -129 -3 -139 6 -2 2 28 4 67 4 40 0 72 -4
72 -10z m-63 -72 c24 -51 32 -78 24 -78 -4 0 -13 18 -20 40 -6 22 -22 50 -34
61 -20 20 -20 21 -2 11 12 -6 26 -21 32 -34z m-49 9 c14 -11 42 -72 42 -90 0
-19 -17 6 -29 44 -8 24 -22 41 -44 52 -25 14 -27 16 -7 11 14 -4 31 -11 38
-17z m148 -65 c9 -53 -10 -29 -25 30 -15 62 -14 69 4 35 8 -15 17 -45 21 -65z
m-38 -20 c-2 -9 -11 6 -21 35 -22 68 -20 79 4 25 11 -24 19 -51 17 -60z m182
48 c0 -5 -15 -9 -32 -9 l-33 1 30 8 c17 4 31 8 33 9 1 0 2 -3 2 -9z m-701 -14
c29 -25 85 -38 189 -43 61 -4 109 -11 120 -19 13 -10 14 -13 3 -14 -10 0 -7
-8 10 -27 16 -19 18 -23 4 -12 -15 12 -53 18 -153 23 -174 8 -221 27 -208 82
7 28 13 29 35 10z m396 -6 c23 -26 8 -26 -25 0 -18 14 -21 20 -9 20 9 0 24 -9
34 -20z m235 10 c0 -5 -4 -10 -10 -10 -5 0 -10 5 -10 10 0 6 5 10 10 10 6 0
10 -4 10 -10z m-249 -91 l44 -41 -45 33 c-60 44 -66 49 -53 49 6 0 30 -18 54
-41z m-344 -35 c35 -9 92 -14 143 -13 130 2 134 2 116 -16 -11 -11 -42 -16
-123 -18 -137 -3 -237 23 -217 55 7 11 15 10 81 -8z m364 -41 c13 -16 12 -17
-3 -4 -17 13 -22 21 -14 21 2 0 10 -8 17 -17z m-259 -38 c76 0 138 -4 138 -8
0 -4 0 -11 0 -15 0 -5 -6 -9 -12 -9 -7 0 -51 -4 -98 -8 -94 -8 -195 7 -203 30
-8 18 4 27 22 18 9 -4 78 -8 153 -8z m165 -27 c-3 -8 -6 -5 -6 6 -1 11 2 17 5
13 3 -3 4 -12 1 -19z m-482 -7 c-3 -6 -11 -11 -17 -11 -6 0 -6 6 2 15 14 17
26 13 15 -4z m488 -36 c4 -8 2 -17 -3 -20 -6 -4 -10 1 -10 9 0 9 -8 16 -17 16
-16 0 -16 -2 -3 -11 12 -9 11 -10 -7 -6 -12 3 -24 -1 -26 -7 -12 -32 -108 -40
-247 -21 -8 1 -16 11 -18 23 -3 20 1 21 100 25 57 1 131 4 164 5 47 1 63 -2
67 -13z"/>
<path d="M2254 918 l-19 -23 23 19 c21 18 27 26 19 26 -2 0 -12 -10 -23 -22z"/>
<path d="M2156 854 c-27 -25 -46 -48 -42 -51 4 -4 28 14 53 40 61 60 53 68
-11 11z"/>
<path d="M2176 835 c-33 -30 -55 -55 -50 -55 5 0 34 25 64 55 69 70 62 70 -14
0z"/>
<path d="M2676 1608 c3 -5 -6 -7 -20 -4 -15 3 -24 1 -21 -5 8 -12 55 -12 55 1
0 5 7 7 15 4 8 -4 15 -2 15 3 0 5 -11 9 -24 9 -14 0 -22 -4 -20 -8z"/>
<path d="M3090 951 c0 -7 -5 -9 -12 -5 -7 4 -8 3 -4 -5 4 -6 -1 -14 -13 -19
-11 -4 -21 -11 -21 -17 -1 -5 -7 -9 -12 -7 -6 2 -23 -9 -38 -23 -18 -18 -32
-23 -45 -19 -13 5 -16 4 -11 -4 17 -29 61 -12 116 43 29 30 51 58 47 61 -4 4
-7 2 -7 -5z m-76 -75 c-3 -8 -13 -17 -22 -21 -13 -5 -13 -2 3 15 21 24 26 25
19 6z"/>
<path d="M1656 417 c3 -10 9 -15 12 -12 3 3 0 11 -7 18 -10 9 -11 8 -5 -6z"/>
<path d="M1671 359 c-1 -34 -27 -58 -34 -32 -3 10 -5 4 -4 -13 1 -20 5 -30 13
-27 17 6 37 58 31 80 -3 12 -5 10 -6 -8z"/>
<path d="M1632 240 c0 -14 2 -19 5 -12 2 6 2 18 0 25 -3 6 -5 1 -5 -13z"/>
<path d="M1625 180 c-3 -5 -1 -10 4 -10 6 0 11 5 11 10 0 6 -2 10 -4 10 -3 0
-8 -4 -11 -10z"/>
</g>
</svg>
