<?xml version="1.0" standalone="no"?>
<!DOCTYPE svg PUBLIC "-//W3C//DTD SVG 20010904//EN"
 "http://www.w3.org/TR/2001/REC-SVG-20010904/DTD/svg10.dtd">
<svg version="1.0" xmlns="http://www.w3.org/2000/svg"
 width="920.000000pt" height="555.000000pt" viewBox="0 0 920.000000 555.000000"
 preserveAspectRatio="xMidYMid meet">

<g transform="translate(0.000000,555.000000) scale(0.100000,-0.100000)"
fill="#000000" stroke="none">
<path d="M5430 4736 c0 -14 5 -28 11 -31 6 -4 8 -13 5 -21 -3 -7 -1 -16 3 -18
5 -3 7 5 6 17 -1 12 -3 34 -4 50 -1 33 -21 36 -21 3z"/>
<path d="M3718 4502 c-27 -2 -48 -7 -48 -12 0 -5 10 -7 21 -5 12 3 19 1 15 -2
-11 -12 -40 -12 -47 -1 -11 18 -100 -18 -172 -70 -111 -79 -267 -204 -267
-213 0 -15 7 -11 77 39 176 125 342 222 382 222 5 0 22 5 38 11 27 12 37 14
77 17 23 2 13 15 -12 16 -9 1 -38 0 -64 -2z m-168 -76 c0 -3 -4 -8 -10 -11 -5
-3 -10 -1 -10 4 0 6 5 11 10 11 6 0 10 -2 10 -4z m-30 -9 c0 -2 -10 -12 -22
-23 l-23 -19 19 23 c18 21 26 27 26 19z"/>
<path d="M5351 4354 c0 -11 3 -14 6 -6 3 7 2 16 -1 19 -3 4 -6 -2 -5 -13z"/>
<path d="M5351 4284 c0 -11 3 -14 6 -6 3 7 2 16 -1 19 -3 4 -6 -2 -5 -13z"/>
<path d="M5369 4268 c-6 -21 -5 -38 1 -38 5 0 8 9 7 20 -1 17 -5 26 -8 18z"/>
<path d="M3523 4238 c-32 -19 -163 -140 -175 -162 -16 -29 3 -33 104 -20 51 7
126 13 167 13 97 1 275 -39 421 -95 63 -24 118 -44 122 -44 8 0 58 71 58 82 0
19 -222 115 -440 190 -125 43 -221 57 -257 36z"/>
<path d="M5535 4236 c-153 -38 -544 -199 -545 -225 0 -20 40 -81 53 -81 7 0
60 20 118 44 203 84 370 107 612 82 69 -7 87 -6 87 4 0 15 -130 142 -175 171
-34 21 -77 23 -150 5z"/>
<path d="M3637 4006 c-120 -45 -201 -184 -182 -315 32 -215 293 -315 450 -170
143 132 105 390 -70 473 -51 24 -149 30 -198 12z"/>
<path d="M5399 4006 c-121 -43 -192 -145 -192 -276 0 -127 76 -233 191 -266
158 -46 309 50 343 218 20 97 -27 224 -104 282 -68 52 -163 69 -238 42z"/>
<path d="M6220 3807 c0 -30 4 -46 10 -42 6 4 7 11 4 17 -4 7 -2 8 4 4 16 -10
15 6 -3 40 l-15 29 0 -48z"/>
<path d="M2975 3729 c1 -30 0 -56 -4 -59 -3 -3 -17 -19 -31 -35 l-25 -30 28
24 c15 14 27 19 27 13 0 -7 4 -11 9 -9 5 1 17 -7 26 -18 15 -19 16 -18 8 15
-4 19 -7 59 -6 89 2 51 2 53 -13 35 -8 -10 -13 -14 -10 -9 2 6 1 17 -4 25 -5
8 -7 -7 -5 -41z"/>
<path d="M2920 3649 c0 -5 5 -7 10 -4 6 3 10 8 10 11 0 2 -4 4 -10 4 -5 0 -10
-5 -10 -11z"/>
<path d="M3090 3649 c0 -5 5 -7 10 -4 6 3 10 8 10 11 0 2 -4 4 -10 4 -5 0 -10
-5 -10 -11z"/>
<path d="M3020 3582 c0 -6 4 -13 9 -16 5 -3 7 -19 6 -36 -1 -17 0 -28 3 -25
12 12 10 64 -4 76 -9 7 -14 8 -14 1z"/>
<path d="M6223 3548 c-11 -19 -13 -39 -1 -32 5 3 7 9 4 12 -3 3 -1 11 5 19 6
7 9 13 6 13 -3 0 -9 -6 -14 -12z"/>
<path d="M6173 3477 c-18 -12 -32 -27 -33 -34 0 -6 16 3 35 20 49 43 49 48 -2
14z"/>
<path d="M3037 3473 c6 -16 5 -17 -13 -3 -18 14 -18 14 1 -10 11 -14 21 -27
22 -29 2 -2 3 10 3 27 0 18 -4 32 -10 32 -5 0 -6 -8 -3 -17z"/>
<path d="M5593 3456 c-11 -14 -23 -22 -27 -19 -3 3 -6 1 -6 -5 0 -7 -5 -12
-11 -12 -5 0 -7 5 -4 10 3 6 1 10 -4 10 -16 0 -13 -9 18 -68 25 -49 28 -52 42
-36 12 16 12 17 -2 12 -13 -5 -16 -2 -12 13 5 19 6 19 23 2 9 -10 14 -20 10
-23 -4 -3 -2 -11 6 -18 12 -11 14 -10 14 6 0 10 5 23 12 30 8 8 8 15 1 24 -6
7 -17 33 -25 57 l-15 43 -20 -26z m10 -33 c-2 -21 0 -32 3 -25 5 10 10 8 21
-8 20 -28 8 -38 -18 -15 -17 17 -22 17 -29 5 -6 -9 -10 -10 -10 -3 0 6 -3 19
-7 29 -5 14 -3 16 12 10 11 -4 16 -4 13 0 -6 6 7 44 15 44 2 0 2 -17 0 -37z"/>
<path d="M5657 3353 c-2 -4 -7 -21 -11 -36 l-7 -28 -19 23 c-16 19 -19 20 -20
6 0 -42 152 -128 227 -128 37 0 26 23 -20 44 -23 10 -65 43 -93 73 -29 30 -54
51 -57 46z m18 -60 c2 -21 1 -30 -2 -20 -2 9 -8 15 -12 13 -4 -3 -8 1 -8 9 0
8 5 12 10 8 5 -3 6 4 2 18 -4 13 -4 21 0 17 4 -4 9 -24 10 -45z m29 -19 c3 -8
2 -12 -4 -9 -6 3 -10 10 -10 16 0 14 7 11 14 -7z"/>
<path d="M4595 3320 c-4 -6 -11 -7 -17 -4 -6 4 -8 3 -5 -3 3 -5 24 -10 46 -10
22 0 38 3 36 7 -3 4 -17 5 -31 2 -19 -3 -25 -1 -20 7 4 6 5 11 2 11 -3 0 -8
-5 -11 -10z"/>
<path d="M6064 3078 c-25 -48 -26 -58 -18 -110 11 -63 -11 -211 -39 -264 l-14
-27 -13 39 c-7 21 -13 79 -12 127 l0 89 -36 -34 c-70 -66 -107 -89 -122 -75
-7 6 -10 7 -7 1 4 -6 -14 -26 -38 -43 -25 -18 -45 -30 -45 -27 0 3 -16 -2 -35
-10 -19 -8 -49 -16 -67 -18 -18 -3 -53 -9 -78 -15 -69 -15 -130 -20 -130 -10
0 5 5 9 10 9 6 0 10 4 10 9 0 5 -17 9 -37 8 -21 -1 -51 2 -66 6 -22 5 -28 3
-23 -8 4 -11 0 -12 -21 -4 -18 7 -30 6 -41 -3 -10 -8 -13 -8 -9 -2 4 8 -6 13
-30 16 -29 4 -42 -1 -60 -18 -17 -17 -35 -24 -66 -24 -23 -1 -51 -1 -62 -1
-11 -1 -29 -1 -40 -1 -11 0 -49 -1 -85 -3 -248 -13 -330 -13 -344 1 -9 9 -17
10 -21 4 -8 -14 -52 -13 -57 1 -3 9 -9 9 -23 1 -12 -6 -52 -8 -95 -5 -41 3
-88 4 -105 4 -62 -2 -141 0 -160 4 -11 2 -25 4 -32 4 -7 1 -10 8 -7 16 4 11 2
13 -9 9 -8 -3 -31 -1 -51 4 -25 7 -36 7 -36 0 0 -6 -6 -6 -15 2 -8 7 -15 8
-15 4 0 -5 -9 -15 -20 -21 -15 -10 -18 -10 -15 0 3 7 -4 12 -20 12 -17 0 -24
-4 -20 -14 5 -11 3 -12 -10 -1 -9 7 -18 10 -22 7 -3 -4 -11 -3 -17 3 -7 5 -27
12 -46 15 -19 3 -40 11 -47 17 -15 12 -17 0 -4 -21 5 -8 19 -12 35 -9 14 3 34
-1 43 -8 15 -11 10 -12 -37 -9 -30 1 -58 3 -61 4 -4 0 -9 15 -13 32 -4 20 -10
28 -17 23 -20 -12 -59 -13 -59 -1 0 5 -3 7 -7 4 -3 -4 -11 -3 -17 2 -6 5 -20
5 -31 1 -17 -6 -14 -9 20 -18 22 -6 52 -14 68 -17 15 -3 27 -10 27 -16 0 -12
-16 -9 -108 17 -47 13 -51 16 -42 34 7 12 7 19 1 18 -5 -2 -16 6 -24 16 -9 12
-16 15 -21 8 -3 -6 1 -17 9 -25 38 -38 7 -35 -55 5 -34 22 -46 36 -42 47 5 13
3 14 -10 3 -13 -10 -21 -7 -49 15 -62 50 -115 107 -142 155 -31 53 -53 74 -42
38 4 -12 8 -54 10 -93 4 -90 25 -179 64 -279 17 -42 31 -88 31 -102 0 -27 -25
-46 -50 -39 -8 3 -5 -2 8 -12 30 -22 28 -43 -5 -56 -22 -8 -30 -7 -38 5 -6 8
-16 11 -22 8 -17 -11 6 -37 47 -55 22 -10 28 -16 17 -16 -11 -1 -15 -6 -11
-12 13 -22 -47 24 -72 55 l-26 31 19 -34 c40 -73 106 -92 161 -46 35 29 50 31
59 9 12 -32 84 -36 153 -7 8 3 22 7 30 8 8 1 42 7 74 14 96 18 134 15 141 -11
4 -13 12 -36 19 -53 22 -49 38 -98 43 -130 3 -16 10 -35 14 -41 5 -6 6 -19 3
-28 -7 -18 9 -57 34 -88 10 -12 11 -22 3 -35 -12 -23 7 -68 40 -95 26 -22 43
-23 35 -3 -3 8 -1 15 3 15 5 0 11 -7 15 -15 3 -8 2 -15 -3 -15 -12 0 35 -90
55 -104 13 -10 14 -16 3 -39 -13 -28 0 -57 26 -57 18 0 28 -76 14 -102 -7 -12
-12 -36 -11 -52 1 -22 -2 -26 -8 -16 -7 11 -14 12 -26 4 -32 -19 -35 -74 -9
-155 8 -23 25 -25 25 -2 0 9 3 14 6 10 4 -3 3 -14 0 -24 -4 -10 -7 -18 -7 -18
0 0 -4 -18 -9 -40 -5 -22 -12 -71 -16 -110 -3 -38 -11 -78 -16 -89 -5 -10 -14
-43 -19 -75 -13 -85 -14 -90 -27 -103 -9 -9 -10 -80 -5 -273 l6 -262 -30 -18
c-16 -9 -36 -27 -43 -39 -12 -19 -12 -20 4 -7 24 20 29 8 6 -17 -11 -12 -27
-19 -35 -16 -16 7 -33 -28 -37 -75 -1 -18 -7 -27 -14 -24 -14 5 -23 -28 -29
-104 l-4 -50 82 -7 c167 -13 478 -8 535 9 l52 16 0 106 c0 84 -3 110 -16 124
-14 15 -15 27 -6 81 6 35 18 122 27 193 9 72 23 140 31 153 10 15 17 56 19
110 2 48 8 114 14 147 14 81 74 268 87 272 7 2 15 -13 19 -34 3 -21 15 -68 27
-105 11 -37 17 -71 14 -77 -3 -5 3 -39 14 -75 11 -36 23 -98 26 -138 4 -54 13
-86 33 -123 25 -44 32 -65 46 -125 2 -8 13 -49 25 -90 15 -53 19 -88 15 -121
-4 -31 -2 -54 6 -67 11 -17 11 -25 0 -45 -14 -26 -12 -82 4 -83 18 -1 149 -16
175 -19 130 -18 523 -25 630 -11 51 6 56 9 55 32 0 14 -5 28 -11 32 -6 4 -15
21 -18 38 -4 17 -19 43 -34 57 -37 35 -138 87 -171 87 -32 0 -58 15 -42 24 6
4 20 2 31 -4 20 -11 30 3 10 15 -6 4 -8 10 -5 15 6 10 -46 40 -70 40 -9 0 -13
-5 -10 -10 4 -6 -14 -1 -39 12 -35 17 -47 29 -52 52 -17 76 -26 157 -28 236
-3 161 -4 169 -31 194 -19 18 -25 33 -25 68 0 24 -7 53 -15 64 -10 13 -14 44
-15 98 0 73 1 78 20 73 17 -4 19 -1 14 18 -5 19 0 27 25 39 39 21 38 21 34
-11 -3 -21 15 -56 71 -143 78 -121 122 -180 136 -180 8 0 -149 239 -181 275
-17 19 -16 22 18 90 19 39 43 95 53 125 10 30 25 72 34 93 15 35 6 54 -11 22
-8 -13 -11 -13 -31 1 -21 15 -22 18 -8 33 9 9 22 35 30 58 8 22 27 60 42 84
27 41 29 51 29 151 0 74 4 108 11 108 26 0 33 70 9 90 -8 7 -15 20 -16 29 0
10 -2 11 -6 4 -2 -7 -12 -13 -21 -12 -11 0 -12 2 -4 6 6 2 12 9 12 15 0 6 -6
8 -14 5 -8 -3 -22 3 -32 14 -10 11 -12 19 -6 19 7 0 12 -5 12 -11 0 -6 9 -8
20 -4 11 4 20 2 20 -4 0 -6 4 -11 10 -11 17 0 23 50 10 95 -11 38 -10 48 4 69
9 14 16 33 16 42 0 14 7 16 46 10 25 -3 55 -13 67 -21 30 -21 125 -20 157 2
14 9 40 30 58 46 l32 31 45 -22 c54 -26 83 -28 113 -7 20 15 26 13 88 -20 88
-46 107 -45 140 5 15 22 30 40 34 40 10 0 -1 59 -12 66 -6 4 -17 -1 -25 -9
-14 -14 -14 -17 4 -28 18 -11 19 -15 7 -39 -25 -49 -46 -62 -85 -49 -50 17
-57 28 -10 16 34 -9 44 -9 57 5 11 11 12 18 5 22 -6 4 -11 0 -11 -11 -1 -13
-5 -11 -16 10 -8 15 -17 27 -20 27 -2 0 0 -8 5 -18 9 -17 6 -17 -34 2 -24 11
-41 24 -38 29 2 4 11 2 19 -4 12 -10 15 -10 12 2 -2 10 5 13 25 12 15 -1 25 2
22 7 -4 6 -2 10 4 10 6 0 8 7 4 16 -3 10 -8 12 -12 5 -4 -6 -12 3 -18 19 -8
21 -8 30 0 30 5 0 7 3 3 8 -4 4 -20 7 -34 7 -40 0 -39 28 4 152 33 97 37 122
43 246 3 75 5 137 4 137 -2 0 -15 -24 -29 -52z m-2684 -338 c-5 -3 -13 -17
-19 -30 -5 -14 -10 -18 -10 -10 0 8 3 22 9 30 6 9 5 19 -3 29 -10 12 -9 12 10
0 12 -7 18 -16 13 -19z m2363 -17 c-4 -10 -2 -14 4 -10 5 3 10 1 10 -6 0 -7 4
-21 8 -32 4 -11 -2 -5 -14 13 -12 18 -19 37 -16 43 10 15 15 10 8 -8z m-2356
-8 c-4 -8 -2 -17 4 -21 7 -4 6 -10 0 -18 -6 -7 -7 -17 -3 -21 4 -5 2 -5 -4 -2
-9 5 -11 26 -5 70 1 4 4 7 7 7 3 0 4 -7 1 -15z m608 -5 c3 -6 -4 -10 -17 -10
-18 0 -20 2 -8 10 19 12 18 12 25 0z m-520 -17 c-4 -10 -7 -27 -7 -38 1 -15
-1 -17 -8 -5 -5 8 -5 21 0 31 5 9 6 19 3 23 -3 3 -1 6 6 6 9 0 11 -6 6 -17z
m2014 -37 c0 -21 0 -21 -9 2 -13 31 -21 28 -14 -7 3 -16 2 -31 -2 -34 -7 -4
-10 34 -5 65 3 18 31 -6 30 -26z m316 -35 c1 -17 -2 -34 -5 -36 -4 -2 -6 11
-5 30 1 19 -2 35 -7 35 -4 0 -8 -7 -8 -17 0 -9 -3 -14 -6 -10 -4 3 -4 13 0 22
10 27 29 12 31 -24z m170 7 c6 -4 2 -8 -7 -8 -10 0 -18 7 -18 17 0 9 3 12 8 7
4 -5 12 -12 17 -16z m-2588 -3 c0 -8 -4 -12 -9 -9 -5 3 -6 10 -3 15 9 13 12
11 12 -6z m2603 -25 c0 -5 -2 -10 -4 -10 -3 0 -8 5 -11 10 -3 6 -1 10 4 10 6
0 11 -4 11 -10z m-6 -42 c19 -36 19 -38 7 -38 -5 0 -11 8 -14 18 -2 9 -8 25
-12 35 -12 30 3 19 19 -15z m-1149 12 c-3 -5 -10 -10 -16 -10 -5 0 -9 5 -9 10
0 6 7 10 16 10 8 0 12 -4 9 -10z m1115 -30 c0 -5 -2 -10 -4 -10 -3 0 -8 5 -11
10 -3 6 -1 10 4 10 6 0 11 -4 11 -10z m-1300 -37 c40 -21 67 -39 62 -41 -11
-3 -95 37 -127 62 -33 26 -10 18 65 -21z m1207 15 c-3 -8 -6 -5 -6 6 -1 11 2
17 5 13 3 -3 4 -12 1 -19z m48 -10 c5 4 5 1 1 -6 -11 -18 -29 -10 -32 14 -3
18 -2 18 10 2 7 -10 17 -14 21 -10z m-1118 -4 c-3 -3 -12 -4 -19 -1 -8 3 -5 6
6 6 11 1 17 -2 13 -5z m-1397 -14 c0 -5 -5 -10 -11 -10 -5 0 -7 5 -4 10 3 6 8
10 11 10 2 0 4 -4 4 -10z m880 6 c0 -3 -4 -8 -10 -11 -5 -3 -10 -1 -10 4 0 6
5 11 10 11 6 0 10 -2 10 -4z m40 -16 c0 -5 -4 -10 -10 -10 -5 0 -10 5 -10 10
0 6 5 10 10 10 6 0 10 -4 10 -10z m1500 -5 c40 -21 38 -29 -2 -12 -18 8 -39
12 -45 10 -7 -3 -13 0 -13 6 0 15 26 14 60 -4z m141 -2 c13 -15 12 -15 -11 -3
-34 17 -36 20 -18 20 9 0 22 -7 29 -17z m-25 -16 c11 -11 -19 -8 -36 3 -12 8
-10 9 7 7 12 -2 26 -6 29 -10z m-2001 -7 c3 -5 1 -10 -4 -10 -6 0 -11 5 -11
10 0 6 2 10 4 10 3 0 8 -4 11 -10z m835 0 c0 -5 -2 -10 -4 -10 -3 0 -8 5 -11
10 -3 6 -1 10 4 10 6 0 11 -4 11 -10z m40 -10 c0 -5 -4 -10 -9 -10 -6 0 -13 5
-16 10 -3 6 1 10 9 10 9 0 16 -4 16 -10z m45 0 c-3 -5 -10 -10 -16 -10 -5 0
-9 5 -9 10 0 6 7 10 16 10 8 0 12 -4 9 -10z m-1315 -4 c0 -2 -7 -7 -16 -10 -8
-3 -12 -2 -9 4 6 10 25 14 25 6z m440 -5 c0 -5 -7 -11 -14 -14 -10 -4 -13 -1
-9 9 6 15 23 19 23 5z m784 -16 c19 -28 20 -35 6 -35 -5 0 -16 14 -25 30 -19
36 -4 40 19 5z m-844 -9 c0 -8 -7 -16 -15 -20 -13 -4 -14 -2 -5 14 13 23 20
26 20 6z m110 -18 c0 -12 -14 -10 -28 4 -19 19 -14 29 8 16 11 -7 20 -16 20
-20z m856 1 c3 -5 -1 -9 -9 -9 -8 0 -20 -7 -27 -15 -7 -9 -28 -15 -49 -14 -28
0 -32 2 -16 8 11 5 26 6 33 4 14 -6 16 13 2 22 -6 4 -8 10 -6 14 6 10 64 2 72
-10z m788 13 c3 -5 -1 -9 -9 -9 -8 0 -12 4 -9 9 3 4 7 8 9 8 2 0 6 -4 9 -8z
m-1804 -26 c0 -8 -6 -16 -14 -19 -10 -4 -12 0 -9 14 6 22 23 26 23 5z m96 -14
c-4 -3 -14 2 -24 12 -16 18 -16 18 6 6 13 -6 21 -14 18 -18z m94 16 c0 -17
-18 -44 -24 -37 -8 7 5 49 15 49 5 0 9 -6 9 -12z m685 2 c3 -5 1 -10 -4 -10
-6 0 -11 5 -11 10 0 6 2 10 4 10 3 0 8 -4 11 -10z m-646 -31 c-24 -15 -29 -10
-11 11 10 12 18 16 21 9 2 -6 -3 -15 -10 -20z m-109 -15 c-18 -21 -24 -10 -9
18 8 14 14 18 17 10 2 -7 -2 -19 -8 -28z m917 19 c-9 -9 -20 -13 -24 -9 -4 4
-1 11 7 16 25 16 35 11 17 -7z m343 11 c0 -3 -7 -12 -15 -20 -16 -17 -18 -14
-9 10 6 15 24 23 24 10z m-1420 -25 c0 -5 -4 -9 -10 -9 -5 0 -10 7 -10 16 0 8
5 12 10 9 6 -3 10 -10 10 -16z m923 4 c-7 -2 -19 -2 -25 0 -7 3 -2 5 12 5 14
0 19 -2 13 -5z m537 -14 c0 -6 -4 -7 -10 -4 -5 3 -10 11 -10 16 0 6 5 7 10 4
6 -3 10 -11 10 -16z m-1350 -3 c0 -8 -7 -16 -15 -20 -13 -4 -14 -2 -5 14 13
23 20 26 20 6z m943 -1 c4 0 8 -4 10 -10 1 -5 -11 -11 -26 -13 -21 -3 -32 -13
-44 -38 -9 -19 -20 -34 -25 -34 -15 0 -8 27 13 54 25 31 20 32 -23 6 -43 -26
-52 -25 -33 4 17 26 68 39 85 22 7 -7 10 -4 10 8 0 11 4 14 13 9 6 -4 15 -8
20 -8z m-993 -24 c0 -5 -6 -14 -14 -20 -12 -10 -13 -8 -9 8 5 21 23 30 23 12z
m-40 -42 c0 -5 -4 -9 -10 -9 -5 0 -10 7 -10 16 0 8 5 12 10 9 6 -3 10 -10 10
-16z m265 10 c11 -17 -1 -21 -15 -4 -8 9 -8 15 -2 15 6 0 14 -5 17 -11z m-55
-14 c7 -8 8 -15 2 -15 -5 0 -15 7 -22 15 -7 8 -8 15 -2 15 5 0 15 -7 22 -15z
m1192 -29 c-10 -14 -22 -22 -26 -19 -3 4 4 17 16 30 28 30 36 22 10 -11z
m-1242 2 c0 -13 -23 -5 -28 10 -2 7 2 10 12 6 9 -3 16 -11 16 -16z m1300 7
c-10 -12 -10 -18 1 -32 13 -15 12 -15 -8 -4 -26 13 -28 22 -11 39 17 17 33 15
18 -3z m-1210 -2 c0 -14 -19 -38 -25 -32 -8 8 5 39 16 39 5 0 9 -3 9 -7z m492
-10 c26 -23 24 -53 -4 -53 -21 1 -22 2 -6 14 10 7 15 16 11 19 -10 11 -71 8
-78 -3 -8 -12 -35 -13 -35 -1 0 8 64 39 84 40 5 1 18 -6 28 -16z m93 8 c7 -12
-12 -24 -25 -16 -11 7 -4 25 10 25 5 0 11 -4 15 -9z m-649 -17 c-3 -9 -6 -18
-6 -20 0 -2 -4 -4 -9 -4 -5 0 -7 9 -4 20 3 11 10 20 15 20 6 0 7 -7 4 -16z
m-57 -10 c7 -6 -9 -34 -20 -34 -8 0 -7 5 2 17 12 15 12 16 -3 10 -9 -3 -22 1
-29 9 -11 13 -9 14 17 8 16 -4 31 -8 33 -10z m795 -3 c13 -14 16 -28 11 -50
-4 -17 -10 -33 -15 -36 -4 -3 -4 11 0 31 7 29 5 39 -11 55 -10 10 -15 19 -11
19 5 0 17 -9 26 -19z m-64 1 c0 -11 -22 -32 -32 -32 -5 0 -4 9 2 20 11 20 30
28 30 12z m-782 -39 c-2 -9 -9 -18 -16 -19 -7 -1 -8 0 -3 2 6 3 7 12 4 20 -3
8 0 14 7 14 6 0 10 -8 8 -17z m552 7 c0 -5 -4 -10 -10 -10 -5 0 -10 5 -10 10
0 6 5 10 10 10 6 0 10 -4 10 -10z m-299 -47 c-9 -17 -10 -17 -17 1 -4 11 -2
21 7 27 18 11 24 -5 10 -28z m430 8 c-10 -18 -59 -51 -76 -51 -17 0 0 19 30
33 20 9 38 24 42 32 3 9 8 14 10 11 3 -2 0 -14 -6 -25z m-721 -2 c0 -6 -4 -7
-10 -4 -5 3 -10 11 -10 16 0 6 5 7 10 4 6 -3 10 -11 10 -16z m259 -15 c11 -25
13 -26 30 -10 13 12 21 14 26 6 4 -7 -1 -14 -11 -17 -11 -3 -41 -34 -69 -70
-27 -35 -62 -79 -77 -96 l-26 -32 -20 22 c-10 13 -22 20 -26 16 -3 -3 -6 1 -6
11 0 11 -5 15 -12 10 -7 -4 -10 -4 -6 1 4 4 3 14 -3 21 -6 8 -9 20 -6 28 3 7
0 19 -6 25 -22 22 58 78 148 101 47 12 51 12 64 -16z m-279 -14 c0 -5 -7 -10
-15 -10 -8 0 -15 5 -15 10 0 6 7 10 15 10 8 0 15 -4 15 -10z m880 0 c0 -5 -5
-10 -11 -10 -5 0 -7 5 -4 10 3 6 8 10 11 10 2 0 4 -4 4 -10z m509 3 c-1 -5 0
-19 1 -33 l2 -25 11 28 c11 27 29 38 25 15 -2 -7 3 -12 10 -10 6 1 12 -1 13
-5 0 -5 2 -20 4 -35 2 -15 -1 -30 -6 -33 -5 -4 -9 -1 -9 4 0 6 -9 11 -20 11
-11 0 -20 5 -20 11 0 5 -4 8 -9 5 -17 -11 -71 6 -72 23 0 11 -3 9 -9 -6 -5
-13 -12 -23 -15 -23 -3 0 1 15 9 33 7 17 18 31 25 30 6 -2 11 2 11 7 0 6 11
10 25 10 14 0 24 -3 24 -7z m-431 -14 c-2 -6 -8 -10 -13 -10 -5 0 -11 4 -13
10 -2 6 4 11 13 11 9 0 15 -5 13 -11z m-198 -3 c0 -2 -7 -7 -16 -10 -8 -3 -12
-2 -9 4 6 10 25 14 25 6z m24 -71 c3 -8 4 -21 2 -27 -1 -7 -1 -10 1 -5 3 4 9
7 14 7 11 0 12 -30 1 -48 -12 -18 -42 -4 -35 15 4 11 2 14 -5 9 -17 -11 -26
19 -12 43 13 25 26 27 34 6z m366 -10 c-7 -8 -10 -22 -6 -30 3 -9 0 -15 -9
-15 -8 0 -15 -4 -15 -10 0 -5 -5 -10 -11 -10 -13 0 -2 39 19 63 18 21 40 23
22 2z m245 -16 c4 -5 14 -9 23 -7 22 5 55 -37 49 -60 -4 -13 -5 -11 -6 6 0 12
-4 21 -8 20 -5 -1 -19 4 -33 9 -29 12 -59 43 -42 43 6 0 14 -5 17 -11z m97
-13 c7 4 8 2 4 -4 -12 -20 -26 -13 -25 11 1 17 2 18 6 4 2 -9 9 -14 15 -11z
m-1232 -8 c-11 -12 -20 -26 -20 -31 0 -6 9 0 19 12 17 19 23 21 43 11 22 -11
22 -10 4 4 -11 9 -15 16 -9 16 7 0 15 -5 19 -11 3 -6 15 -9 25 -6 23 6 23 4 3
-35 -9 -17 -19 -26 -23 -21 -3 5 -16 9 -29 8 -13 -1 -25 2 -27 6 -3 4 -16 6
-29 5 l-24 -3 20 34 c11 18 26 33 34 33 11 0 10 -6 -6 -22z m155 -25 c-2 -10
-4 -24 -4 -30 -1 -7 -6 -13 -12 -13 -6 0 -8 9 -4 23 4 17 2 16 -10 -6 -20 -34
-30 -30 -16 6 5 14 18 27 28 30 10 3 19 5 20 6 1 0 0 -7 -2 -16z m50 -43 c-4
-6 -10 -8 -15 -5 -5 3 -13 -3 -19 -12 -13 -23 -14 -2 -1 32 9 24 11 25 26 11
8 -9 12 -20 9 -26z m110 17 c11 -3 15 -10 15 -31 0 -17 -26 -15 -43 4 -9 11
-8 11 7 0 18 -14 18 -14 6 7 -13 21 -15 21 -27 3 -8 -11 -20 -16 -33 -13 -23
6 -24 8 -10 33 8 16 15 17 42 9 18 -6 38 -11 43 -12z m68 -39 c8 -5 7 -13 -1
-30 -8 -14 -10 -16 -7 -4 5 16 3 17 -10 6 -23 -19 -25 -10 -12 40 10 37 12 41
15 20 2 -14 9 -28 15 -32z m317 -3 c-7 -9 -15 -13 -18 -10 -3 2 1 11 8 20 7 9
15 13 18 10 3 -2 -1 -11 -8 -20z m90 0 c-7 -9 -15 -13 -18 -10 -3 2 1 11 8 20
7 9 15 13 18 10 3 -2 -1 -11 -8 -20z m-39 1 c-9 -11 -9 -15 0 -18 7 -2 10 -11
7 -18 -3 -11 -8 -9 -17 8 -12 23 -8 42 11 42 7 0 7 -5 -1 -14z m-31 -43 c0
-13 -3 -13 -15 -3 -8 7 -12 16 -9 21 8 13 24 1 24 -18z m59 -39 c-15 -18 -22
-13 -13 10 3 9 10 13 16 10 5 -3 4 -12 -3 -20z m-39 1 c-7 -8 -17 -15 -22 -15
-6 0 -5 7 2 15 7 8 17 15 22 15 6 0 5 -7 -2 -15z m-50 -24 c0 -5 8 -12 18 -15
10 -4 23 -18 30 -34 l12 -27 -6 28 c-5 28 -4 28 21 11 l25 -16 -20 -28 c-11
-16 -20 -34 -20 -41 0 -7 -8 2 -18 21 -10 19 -29 52 -41 73 -13 20 -18 37 -12
37 6 0 11 -4 11 -9z m305 -49 c-3 -3 -11 0 -18 7 -9 10 -8 11 6 5 10 -3 15 -9
12 -12z m-1025 -131 c-7 -39 -17 -71 -22 -71 -8 0 -6 17 13 89 5 21 4 40 -2
50 -8 13 -9 13 -8 1 4 -28 -14 -120 -23 -126 -10 -6 -1 70 11 96 4 8 7 27 6
43 -1 27 -1 27 19 8 18 -19 19 -24 6 -90z m631 76 c-10 -9 -11 -8 -5 6 3 10 9
15 12 12 3 -3 0 -11 -7 -18z m313 -12 c25 -38 19 -41 -14 -10 -16 16 -30 32
-30 37 0 14 29 -3 44 -27z m-201 9 c7 -7 -12 -64 -22 -64 -8 0 -31 45 -31 60
0 11 43 14 53 4z m-77 -60 c-6 -22 -9 -23 -29 -13 -12 7 -24 13 -26 15 -2 2
10 14 25 28 32 27 41 17 30 -30z m170 47 c-3 -4 1 -17 9 -27 25 -33 18 -50
-10 -24 -27 26 -32 46 -12 53 18 8 19 8 13 -2z m179 -28 c-9 -48 -10 -49 -31
-29 -13 14 -15 22 -6 42 7 13 19 24 28 24 13 0 15 -7 9 -37z m-450 -53 c-15
-29 -16 -30 -40 -14 -40 26 -33 34 43 43 9 1 9 -6 -3 -29z m-95 1 c-1 -11 -38
-51 -47 -50 -4 0 -18 12 -30 28 l-21 27 49 0 c27 0 49 -2 49 -5z m438 -20 c3
-8 -1 -12 -9 -9 -7 2 -15 10 -17 17 -3 8 1 12 9 9 7 -2 15 -10 17 -17z m-637
-58 c13 -15 11 -16 -16 -9 -41 10 -56 26 -23 26 14 0 32 -7 39 -17z m724 -3
c3 -5 1 -10 -4 -10 -6 0 -11 5 -11 10 0 6 2 10 4 10 3 0 8 -4 11 -10z m-765
-28 c0 -4 -15 -8 -34 -8 -19 0 -32 4 -30 8 3 4 18 8 35 8 16 0 29 -4 29 -8z
m613 -65 c31 -25 18 -28 -18 -5 -19 13 -35 27 -35 31 0 8 24 -4 53 -26z m-665
-18 c12 -18 11 -20 -5 -17 -10 2 -19 11 -21 21 -5 23 10 21 26 -4z m115 -36
c-7 -2 -19 -2 -25 0 -7 3 -2 5 12 5 14 0 19 -2 13 -5z m-118 -13 c3 -5 1 -10
-4 -10 -6 0 -11 5 -11 10 0 6 2 10 4 10 3 0 8 -4 11 -10z m125 -24 c0 -3 -4
-8 -10 -11 -5 -3 -10 -1 -10 4 0 6 5 11 10 11 6 0 10 -2 10 -4z m-109 -78 c11
-21 -2 -29 -41 -24 -14 2 -31 4 -37 5 -21 2 -15 21 10 30 33 13 57 9 68 -11z
m79 -33 c0 -17 -2 -18 -25 -9 -13 5 -14 8 -3 15 19 13 28 11 28 -6z m-408
-137 c-7 -7 -12 -8 -12 -2 0 14 12 26 19 19 2 -3 -1 -11 -7 -17z m166 -30 c-2
-5 -8 -9 -13 -9 -5 0 -11 4 -13 9 -1 5 4 9 13 9 9 0 14 -4 13 -9z m115 -5 c29
-15 30 -17 12 -23 -11 -4 -29 -3 -40 3 -18 9 -19 9 -5 -8 14 -17 14 -17 -6 -7
-12 6 -24 9 -26 6 -3 -2 -3 7 -1 21 6 29 22 31 66 8z m-118 -33 c3 -5 -1 -10
-10 -10 -9 0 -13 5 -10 10 3 6 8 10 10 10 2 0 7 -4 10 -10z m825 -10 c-8 -5
-37 -9 -65 -8 l-50 1 50 7 c82 11 82 11 65 0z m-705 -30 c-3 -5 -12 -7 -20 -3
-21 7 -19 13 6 13 11 0 18 -4 14 -10z m445 -165 c14 -19 14 -19 -2 -6 -10 7
-18 18 -18 24 0 6 1 8 3 6 1 -2 9 -13 17 -24z m-745 -395 c-3 -5 -11 -10 -16
-10 -6 0 -7 5 -4 10 3 6 11 10 16 10 6 0 7 -4 4 -10z m-65 -79 c0 -5 -15 -15
-32 -22 -18 -7 -38 -20 -45 -29 -9 -11 -12 -11 -13 -2 0 7 13 21 30 30 16 9
30 20 30 25 0 4 7 7 15 7 8 0 15 -4 15 -9z"/>
<path d="M5739 2783 l-24 -28 28 24 c15 14 27 26 27 28 0 8 -8 1 -31 -24z"/>
<path d="M5677 2769 c-10 -6 -21 -8 -24 -5 -4 3 -12 1 -20 -6 -10 -8 -17 -8
-24 -1 -8 8 -19 7 -37 -3 -15 -8 -48 -14 -74 -14 -26 0 -50 -5 -54 -12 -5 -7
-2 -9 9 -5 9 3 17 1 19 -5 3 -7 9 -8 18 -3 15 9 23 11 76 18 55 7 134 29 140
38 7 12 -7 11 -29 -2z"/>
<path d="M6113 2508 c0 -18 2 -27 5 -19 4 11 6 11 13 0 6 -10 8 -7 6 9 -6 39
-24 47 -24 10z"/>
<path d="M6218 2418 c5 -5 16 -8 23 -6 8 3 3 7 -10 11 -17 4 -21 3 -13 -5z"/>
<path d="M5458 1643 c6 -2 18 -2 25 0 6 3 1 5 -13 5 -14 0 -19 -2 -12 -5z"/>
<path d="M5383 1633 c9 -2 25 -2 35 0 9 3 1 5 -18 5 -19 0 -27 -2 -17 -5z"/>
<path d="M5326 1426 c17 -13 18 -18 7 -46 -11 -28 -10 -32 10 -40 12 -4 60
-24 107 -44 49 -21 93 -34 105 -30 13 3 16 2 8 -3 -16 -11 111 -68 128 -57 7
4 9 3 6 -3 -3 -5 29 -24 71 -41 84 -35 97 -38 86 -20 -4 7 -3 8 5 4 6 -4 9
-11 7 -15 -3 -4 76 -42 174 -83 99 -42 180 -71 180 -67 0 5 9 0 21 -12 12 -12
29 -19 40 -16 10 3 17 2 14 -3 -5 -8 74 -44 82 -37 2 3 1 15 -2 29 -5 18 -25
32 -83 58 -42 19 -122 55 -177 81 -55 25 -165 76 -245 112 -80 36 -217 97
-305 137 -88 40 -179 81 -202 91 -50 23 -64 24 -37 5z m419 -204 c-3 -3 -11 0
-18 7 -9 10 -8 11 6 5 10 -3 15 -9 12 -12z m-1 -28 c3 -8 2 -12 -4 -9 -6 3
-10 10 -10 16 0 14 7 11 14 -7z m336 -144 c8 -5 11 -10 5 -10 -5 0 -17 5 -25
10 -8 5 -10 10 -5 10 6 0 17 -5 25 -10z m215 -70 c3 -6 -1 -7 -9 -4 -18 7 -21
14 -7 14 6 0 13 -4 16 -10z m40 -19 c3 -5 2 -12 -3 -15 -5 -3 -9 1 -9 9 0 17
3 19 12 6z"/>
<path d="M6380 950 c0 -5 4 -11 10 -15 5 -3 7 -11 4 -19 -5 -14 -5 -15 244
-116 115 -47 192 -73 225 -75 52 -4 52 -4 -15 12 -49 11 -68 21 -68 32 0 12
-2 13 -8 3 -7 -9 -15 -10 -35 -3 -35 14 -34 21 1 15 19 -3 23 -2 13 5 -8 5
-27 7 -44 5 -26 -3 -28 -2 -16 14 7 9 9 14 4 9 -4 -4 -17 1 -28 10 -10 10 -20
17 -21 15 0 -2 -40 15 -89 38 -48 23 -92 38 -99 34 -6 -4 -8 -3 -5 3 4 6 -11
17 -33 26 -22 8 -40 12 -40 7z m57 -45 c0 -11 -4 -12 -14 -4 -7 6 -13 13 -13
15 0 2 6 4 13 4 8 0 14 -7 14 -15z m53 -9 c0 -2 -7 -6 -15 -10 -8 -3 -15 -1
-15 4 0 6 7 10 15 10 8 0 15 -2 15 -4z m40 -26 c0 -5 -5 -10 -11 -10 -5 0 -7
5 -4 10 3 6 8 10 11 10 2 0 4 -4 4 -10z m90 -40 c13 -9 13 -10 0 -10 -8 0 -22
5 -30 10 -13 9 -13 10 0 10 8 0 22 -5 30 -10z"/>
</g>
</svg>
